<svg width="128" height="128" viewBox="0 0 128 128" fill="none" xmlns="http://www.w3.org/2000/svg">
<path d="M82.9913 3.20664C84.0408 4.505 84.5757 6.25731 85.6414 9.75762L109 86.2782C100.227 81.7358 90.8101 78.5563 81.0745 76.8497L65.8682 25.5972C65.7481 25.1875 65.498 24.8277 65.1554 24.5719C64.8128 24.3161 64.3962 24.178 63.9682 24.1785C63.5402 24.179 63.1239 24.318 62.7819 24.5746C62.4398 24.8312 62.1905 25.1915 62.0714 25.6015L47.0473 76.8239C37.2696 78.5245 27.8108 81.709 19 86.2663L42.4686 9.74148C43.5429 6.24548 44.0779 4.4964 45.1263 3.19804C46.0523 2.05437 47.2565 1.16631 48.6243 0.618524C50.1699 -1.92349e-07 52.0068 0 55.6731 0H72.438C76.1075 0 77.9444 0 79.4955 0.622827C80.8633 1.17199 82.0661 2.06155 82.9913 3.20664ZM85.7849 89.9183C81.9342 93.2035 74.248 95.4431 65.3957 95.4431C54.534 95.4431 45.4251 92.0686 43.0101 87.5303C42.1472 90.1313 41.953 93.1067 41.953 95.0106C41.953 95.0106 41.3846 104.342 47.8941 110.834C47.8939 110.033 48.0521 109.239 48.3595 108.499C48.6669 107.759 49.1176 107.086 49.6857 106.52C50.2539 105.953 50.9284 105.504 51.6707 105.198C52.413 104.891 53.2086 104.734 54.012 104.734C59.8042 104.734 59.8009 109.771 59.7966 113.864V114.226C59.7966 120.436 63.6009 125.756 69.0113 128C68.1767 126.292 67.7443 124.416 67.7471 122.516C67.7471 116.591 71.2311 114.389 75.2845 111.826C78.5085 109.789 82.0895 107.523 84.5542 102.982C85.8849 100.535 86.5802 97.7943 86.5766 95.0106C86.5773 93.2823 86.3102 91.5653 85.7849 89.9183Z" fill="black"/>
</svg>
