<svg width="128" height="128" viewBox="0 0 128 128" fill="none" xmlns="http://www.w3.org/2000/svg">
<path d="M57.6495 76.3733H29.5275L26.1143 69.9573L73.4251 0L80.8756 3.088L71.5318 51.6853H99.4778L102.934 58.0427L57.6708 128L50.1404 125.12L57.6495 76.3733ZM22.3224 29.056C21.9064 29.0733 21.4913 29.0063 21.1019 28.8591C20.7125 28.7118 20.3569 28.4873 20.0564 28.1991C19.756 27.9109 19.5169 27.5649 19.3536 27.182C19.1903 26.799 19.1062 26.387 19.1062 25.9707C19.1062 25.5543 19.1903 25.1423 19.3536 24.7594C19.5169 24.3764 19.756 24.0304 20.0564 23.7422C20.3569 23.454 20.7125 23.2295 21.1019 23.0823C21.4913 22.935 21.9064 22.868 22.3224 22.8853C23.1185 22.9184 23.8709 23.258 24.4225 23.833C24.974 24.408 25.282 25.1739 25.282 25.9707C25.282 26.7674 24.974 27.5334 24.4225 28.1084C23.8709 28.6834 23.1185 29.0229 22.3224 29.056ZM30.5515 29.056C30.1356 29.0733 29.7204 29.0063 29.331 28.8591C28.9416 28.7118 28.586 28.4873 28.2856 28.1991C27.9851 27.9109 27.7461 27.5649 27.5828 27.182C27.4195 26.799 27.3353 26.387 27.3353 25.9707C27.3353 25.5543 27.4195 25.1423 27.5828 24.7594C27.7461 24.3764 27.9851 24.0304 28.2856 23.7422C28.586 23.454 28.9416 23.2295 29.331 23.0823C29.7204 22.935 30.1356 22.868 30.5515 22.8853C31.3476 22.9184 32.1 23.258 32.6516 23.833C33.2032 24.408 33.5111 25.1739 33.5111 25.9707C33.5111 26.7674 33.2032 27.5334 32.6516 28.1084C32.1 28.6834 31.3476 29.0229 30.5515 29.056ZM38.786 29.056C38.37 29.0733 37.9549 29.0063 37.5655 28.8591C37.1761 28.7118 36.8205 28.4873 36.52 28.1991C36.2196 27.9109 35.9805 27.5649 35.8172 27.182C35.6539 26.799 35.5697 26.387 35.5697 25.9707C35.5697 25.5543 35.6539 25.1423 35.8172 24.7594C35.9805 24.3764 36.2196 24.0304 36.52 23.7422C36.8205 23.454 37.1761 23.2295 37.5655 23.0823C37.9549 22.935 38.37 22.868 38.786 22.8853C39.582 22.9184 40.3345 23.258 40.8861 23.833C41.4376 24.408 41.7456 25.1739 41.7456 25.9707C41.7456 26.7674 41.4376 27.5334 40.8861 28.1084C40.3345 28.6834 39.582 29.0229 38.786 29.056ZM84.9555 14.656H113.883L118 18.768V109.301L113.883 113.419H74.4597L76.4544 110.331H112.608L114.912 108.027V20.0427L112.608 17.7387H87.6701L84.7262 32.9387H81.5796L84.4008 17.5947L84.9768 14.6507L84.9555 14.656ZM15.1172 113.413L11 109.296V18.7627L15.1172 14.6507H56.0602L54.0016 17.7387H16.3972L14.0933 20.0427V108.021L16.3972 110.325H46.1885L45.6978 113.413H15.1172ZM21.2877 103.12H38.7806L38.162 106.213H19.2291L18.2052 105.184V86.6613L21.2877 92.8373V103.12ZM91.2433 103.12L94.3313 106.213H78.9023L80.9556 103.12H91.2433Z" fill="black"/>
</svg>
