<svg width="128" height="128" viewBox="0 0 128 128" fill="none" xmlns="http://www.w3.org/2000/svg">
<path d="M64.3354 6H45.1708C42.6536 5.99918 40.1608 6.49429 37.8349 7.45703C35.5091 8.41978 33.3956 9.8313 31.6154 11.611C29.8351 13.3907 28.4229 15.5036 27.4594 17.8292C26.4959 20.1547 26 22.6473 26 25.1646C25.9992 27.6824 26.4945 30.1756 27.4576 32.5019C28.4208 34.8282 29.8328 36.9419 31.6132 38.7222C33.3935 40.5026 35.5072 41.9146 37.8335 42.8778C40.1598 43.8409 42.653 44.3362 45.1708 44.3354H64.3354M64.3354 6V44.3354M64.3354 6H83.5C86.0173 5.99918 88.51 6.49429 90.8359 7.45703C93.1618 8.41978 95.2752 9.8313 97.0554 11.611C98.8357 13.3907 100.248 15.5036 101.211 17.8292C102.175 20.1547 102.671 22.6473 102.671 25.1646C102.672 27.6824 102.176 30.1756 101.213 32.5019C100.25 34.8282 98.838 36.9419 97.0576 38.7222C95.2773 40.5026 93.1636 41.9146 90.8373 42.8778C88.511 43.8409 86.0178 44.3362 83.5 44.3354H64.3354" stroke="black" stroke-width="9.32433" stroke-linecap="round" stroke-linejoin="round"/>
<path d="M83.4998 44.3354H83.5061C94.0904 44.3354 102.671 52.9156 102.671 63.5V63.5062C102.671 74.0905 94.0904 82.6708 83.5061 82.6708H83.4998C72.9155 82.6708 64.3353 74.0905 64.3353 63.5062V63.5C64.3353 52.9156 72.9155 44.3354 83.4998 44.3354Z" stroke="black" stroke-width="9.32433" stroke-linecap="round" stroke-linejoin="round"/>
<path d="M26 63.5C26 60.9827 26.4959 58.4901 27.4594 56.1645C28.4229 53.839 29.8351 51.726 31.6154 49.9463C33.3956 48.1667 35.5091 46.7551 37.8349 45.7924C40.1608 44.8296 42.6536 44.3345 45.1708 44.3354H64.3354V82.6646H45.1708C42.6536 82.6654 40.1608 82.1703 37.8349 81.2075C35.5091 80.2448 33.3956 78.8332 31.6154 77.0536C29.8351 75.2739 28.4229 73.1609 27.4594 70.8354C26.4959 68.5098 26 66.0172 26 63.5Z" stroke="black" stroke-width="9.32433" stroke-linecap="round" stroke-linejoin="round"/>
<path d="M26 101.835C25.9992 99.3177 26.4945 96.8244 27.4576 94.4981C28.4208 92.1719 29.8328 90.0582 31.6132 88.2778C33.3935 86.4975 35.5072 85.0854 37.8335 84.1223C40.1598 83.1591 42.653 82.6638 45.1708 82.6646H64.3354V101.835C64.3354 106.918 62.3163 111.793 58.7222 115.387C55.1282 118.981 50.2536 121 45.1708 121C42.6536 121.001 40.1608 120.506 37.8349 119.543C35.5091 118.58 33.3956 117.169 31.6154 115.389C29.8351 113.609 28.4229 111.496 27.4594 109.171C26.4959 106.845 26 104.353 26 101.835Z" stroke="black" stroke-width="9.32433" stroke-linecap="round" stroke-linejoin="round"/>
</svg>
