<svg width="128" height="128" viewBox="0 0 128 128" fill="none" xmlns="http://www.w3.org/2000/svg">
<path d="M64 1C55.5954 1 47.2731 2.65675 39.5083 5.87564C31.7434 9.09454 24.6881 13.8126 18.7452 19.7603C6.74284 31.7723 0 48.0641 0 65.0517C0 93.3625 18.368 117.382 43.776 125.901C46.976 126.413 48 124.428 48 122.698V111.873C30.272 115.717 26.496 103.291 26.496 103.291C23.552 95.8605 19.392 93.8749 19.392 93.8749C13.568 89.9037 19.84 90.0318 19.84 90.0318C26.24 90.4802 29.632 96.6292 29.632 96.6292C35.2 106.365 44.608 103.483 48.256 101.945C48.832 97.7821 50.496 94.9638 52.288 93.3625C38.08 91.7612 23.168 86.2528 23.168 61.8491C23.168 54.7394 25.6 49.0388 29.76 44.4911C29.12 42.8898 26.88 36.2284 30.4 27.5815C30.4 27.5815 35.776 25.8521 48 34.1147C53.056 32.7056 58.56 32.001 64 32.001C69.44 32.001 74.944 32.7056 80 34.1147C92.224 25.8521 97.6 27.5815 97.6 27.5815C101.12 36.2284 98.88 42.8898 98.24 44.4911C102.4 49.0388 104.832 54.7394 104.832 61.8491C104.832 86.3168 89.856 91.6972 75.584 93.2985C77.888 95.2841 80 99.1912 80 105.148V122.698C80 124.428 81.024 126.477 84.288 125.901C109.696 117.318 128 93.3625 128 65.0517C128 56.6403 126.345 48.3113 123.128 40.5402C119.912 32.7691 115.198 25.7081 109.255 19.7603C103.312 13.8126 96.2566 9.09454 88.4917 5.87564C80.7269 2.65675 72.4046 1 64 1Z" fill="black"/>
</svg>
