<svg width="128" height="128" viewBox="0 0 128 128" fill="none" xmlns="http://www.w3.org/2000/svg">
<path d="M58.9374 119.265V92.8493L59.6703 92.1129H68.4667L69.1996 92.8483V119.265L68.4667 120H59.6713L58.9374 119.265ZM58.9374 34.1517V7.73638L59.6703 7H68.4667L69.1996 7.73538V34.1517L68.4667 34.8871H59.6713L58.9374 34.1517ZM127.267 68.6481H92.1618L91.4289 67.9128V59.0882L92.1618 58.3529H127.267L128 59.0882V67.9138L127.267 68.6481ZM35.8382 68.6481H0.732943L0 67.9128V59.0882L0.732943 58.3529H35.8382L36.5711 59.0882V67.9138L35.8382 68.6481ZM80.4537 81.8468H71.6774L70.9445 81.1114V60.4988C70.9445 56.831 69.5086 53.9888 65.1009 53.8895C62.8321 53.8293 60.2373 53.8895 57.4635 53.9998L57.0475 54.4262V81.1014L56.3146 81.8367H47.5363L46.8033 81.1014V45.8896L47.5363 45.1532H67.2877C74.9641 45.1532 81.1857 51.3954 81.1857 59.0983V81.1114L80.4537 81.8468ZM27.3509 32.8987V31.6867L33.3834 25.6342H34.5913L43.8136 34.8871V41.2978L42.9616 42.1525H36.5721L27.3509 32.8987ZM34.5913 101.356H33.3834L27.3509 95.3032V94.0903L36.5731 84.8384H42.9626L43.8136 85.6922V92.1029L34.5913 101.356Z" fill="black"/>
</svg>
