<svg width="128" height="128" viewBox="0 0 128 128" fill="none" xmlns="http://www.w3.org/2000/svg">
<g clip-path="url(#clip0_139_50)">
<path d="M91.9557 0C86.8347 0.0479235 81.7424 0.771758 76.8108 2.15274L76.4617 2.25747C73.3566 1.72505 70.2152 1.43134 67.0652 1.37892C60.5895 1.26837 55.0215 2.79274 50.5414 5.33531C46.1195 3.84584 36.95 1.28001 27.2858 1.79201C20.5541 2.14692 13.2115 4.13093 7.77141 9.70479C2.34297 15.2786 -0.525426 23.9012 0.0796724 35.6366C0.242584 38.8773 1.19096 44.1545 2.77352 50.9967C4.34445 57.8331 6.56703 65.8331 9.3307 73.135C12.0944 80.4369 15.1257 87.0056 19.8617 91.4624C22.224 93.6966 25.4764 95.5759 29.3106 95.4188C32.0044 95.314 34.4423 94.1678 36.5427 92.4747C37.5667 93.7838 38.6605 94.354 39.6554 94.8835C40.9064 95.5468 42.1282 96.0006 43.3908 96.3031C46.8871 97.1997 50.5286 97.3798 54.0964 96.8326C55.6498 96.5824 57.2848 96.0937 58.9139 95.3955C58.9721 97.1526 59.0419 98.8748 59.1175 100.62C59.3386 106.148 59.4841 111.25 61.1946 115.724C61.4681 116.457 62.2186 120.222 65.1918 123.544C68.1591 126.872 73.9773 128.943 80.5985 127.57C85.2706 126.599 91.2168 124.847 95.1616 119.401C99.0598 114.014 100.823 106.287 101.172 93.7489C101.259 93.074 101.364 92.498 101.474 91.9569L102.405 92.0384H102.51C107.496 92.2595 112.907 91.5729 117.428 89.5366C121.431 87.7329 124.457 85.9176 126.662 82.6885C127.214 81.8914 127.819 80.9256 127.982 79.2558C128.145 77.5976 127.168 74.991 125.533 73.7925C122.257 71.3837 120.203 72.2972 117.998 72.7452C115.826 73.2106 113.623 73.4686 111.389 73.519C117.748 63.1393 122.304 52.108 124.905 42.345C126.441 36.585 127.307 31.2729 127.377 26.63C127.447 21.987 127.057 17.8736 124.189 14.3128C115.223 3.20002 102.615 0.128 92.8634 0.0232726C92.5608 0.0155149 92.2583 0.013576 91.9557 0.0174548V0ZM91.6997 3.41529C100.922 3.32802 112.709 5.84149 121.169 16.3317C123.072 18.6881 123.636 22.1325 123.572 26.3798C123.502 30.6213 122.694 35.6948 121.216 41.257C118.347 52.0323 112.925 64.588 105.285 75.8637C105.557 76.0517 105.85 76.2061 106.158 76.3234C107.752 76.9634 111.383 77.5103 118.638 76.0674C120.459 75.6892 121.798 75.439 123.182 76.463C123.514 76.738 123.777 77.086 123.952 77.4796C124.126 77.8732 124.207 78.3019 124.189 78.7321C124.112 79.382 123.865 80.0001 123.473 80.5241C122.077 82.5663 119.307 84.5038 115.758 86.098C112.622 87.5176 108.119 88.2565 104.128 88.3031C102.126 88.3205 100.282 88.1693 98.7165 87.698L98.6118 87.6631C98.0067 93.3126 96.6162 104.478 95.7143 109.569C94.987 113.676 93.7187 116.94 91.2925 119.384C88.8721 121.828 85.4509 123.3 80.8429 124.26C75.1352 125.447 70.9751 124.167 68.2929 121.973C65.6165 119.791 64.3888 116.888 63.6499 115.108C63.1437 113.886 62.8819 112.297 62.6259 110.174C62.3444 107.631 62.1562 105.079 62.0615 102.523C61.8945 98.041 61.8402 93.5557 61.8986 89.0711C59.5131 91.1831 56.5458 92.5911 53.3633 93.1206C49.5814 93.7431 46.1952 93.1322 44.1762 92.6435C43.1864 92.3995 42.2293 92.0382 41.3253 91.5671C40.3827 91.0842 39.4925 90.5373 38.8991 89.4551C38.5494 88.8374 38.4377 88.1131 38.5849 87.4187C38.7754 86.7133 39.1975 86.0924 39.7834 85.6558C40.8773 84.7947 42.3144 84.3176 44.4846 83.8754C48.441 83.09 49.8199 82.5489 50.6578 81.903C51.3734 81.3503 52.1821 80.2332 53.6134 78.5867L53.596 78.3714C51.0452 78.2965 48.5446 77.644 46.2824 76.463C45.4621 77.3008 41.2496 81.6238 36.1121 87.6165C33.9536 90.1242 31.5681 91.5613 29.0488 91.666C26.5295 91.7707 24.2545 90.5373 22.3229 88.722C18.4537 85.0798 15.37 78.8136 12.682 71.7328C10.0056 64.6462 7.81795 56.7567 6.2703 50.0367C4.711 43.3166 3.79172 37.8999 3.66372 35.2875C3.08189 24.1805 5.75829 16.6983 10.3547 11.9797C14.9511 7.26114 21.2465 5.46912 27.3906 5.13167C38.4103 4.51494 48.8774 8.24441 50.9952 9.04733C55.0738 6.35931 60.3277 4.68367 66.8965 4.78839C70.01 4.83169 73.1089 5.22198 76.1359 5.95204L76.2464 5.90549C77.5808 5.45167 78.9345 5.07155 80.3076 4.76512C84.0457 3.92138 87.8621 3.47286 91.6939 3.42693L91.6997 3.41529ZM92.5317 6.98768H91.7346C88.5867 7.03008 85.45 7.37298 82.3673 8.01169C88.4865 10.6769 93.8629 14.7951 98.03 20.0089C100.554 23.128 102.648 26.5722 104.256 30.2489C104.861 31.6569 105.268 32.8497 105.495 33.7689C105.611 34.2344 105.693 34.6242 105.716 35.0315C105.737 35.2893 105.716 35.5488 105.652 35.7995L105.617 35.8693C105.786 40.5413 104.593 43.7065 104.448 48.1632C104.337 51.3981 105.186 55.1974 105.396 59.3342C105.594 63.2324 105.111 67.5088 102.504 71.7095C102.721 71.9655 102.931 72.2215 103.133 72.4775C110.027 61.9466 115.002 50.2869 117.649 40.3552C119.063 35.0024 119.819 30.1558 119.883 26.3158C119.942 22.4758 119.203 19.6888 118.26 18.531C110.883 9.37897 100.904 7.05168 92.5317 6.98768ZM66.2041 8.34914C59.7051 8.36078 55.0389 10.2692 51.5072 13.1201C47.8592 16.0699 45.4155 20.1019 43.8097 24.2387C42.2553 28.3727 41.3049 32.7092 40.9878 37.1144L41.0635 37.0737C43.0242 36.0031 45.6017 34.9384 48.3596 34.3217C51.1232 33.7049 54.0964 33.5129 56.7902 34.5253C59.4841 35.5377 61.7125 37.9231 62.5212 41.5421C66.3903 58.9153 61.3168 65.3735 59.4433 70.2433C58.7405 72.0107 58.1345 73.8151 57.628 75.6485C57.8608 75.5825 58.0954 75.536 58.332 75.5088C59.3541 75.4535 60.3739 75.6535 61.2994 76.0907C63.1845 76.847 64.4761 78.4296 65.1743 80.2449C65.3566 80.7258 65.4866 81.2301 65.5641 81.7576C65.6417 81.9787 65.6786 82.2056 65.6747 82.4383C65.4656 89.0815 65.4889 95.73 65.7445 102.372C65.8725 105.246 66.0587 107.771 66.2972 109.766C66.53 111.756 66.8674 113.269 67.0827 113.781C67.7809 115.492 68.8107 117.726 70.6726 119.244C72.5344 120.763 75.1933 121.769 80.0632 120.757C84.2873 119.879 86.8939 118.663 88.6393 116.9C90.3732 115.148 91.4146 112.711 92.0779 108.969C93.0728 103.366 95.0743 87.1278 95.3129 84.0674C95.2081 81.7692 95.5572 79.9947 96.3136 78.6449C97.0991 77.2601 98.3093 76.4107 99.3507 75.951C99.8744 75.7183 100.363 75.567 100.765 75.4565C100.337 74.8647 99.8905 74.2864 99.4264 73.7226C97.9218 71.9626 96.6883 69.9879 95.7667 67.8637C95.3227 66.9899 94.8511 66.1303 94.3528 65.2862C93.6256 64.0062 92.7005 62.4062 91.7346 60.6084C89.7972 57.0069 87.691 52.6432 86.5971 48.3901C85.5091 44.1486 85.3462 39.7559 88.139 36.6548C90.6175 33.9028 94.9579 32.7624 101.48 33.4024C101.288 32.8438 101.172 32.3784 100.846 31.6336C99.3742 28.2532 97.4502 25.0883 95.1267 22.2256C89.5993 15.3717 80.6567 8.57605 66.8325 8.35496H66.2041V8.34914ZM29.6888 8.6226C28.9906 8.6226 28.2924 8.64199 27.5942 8.68078C22.0436 8.98915 16.7955 10.5542 13.0427 14.4175C9.27833 18.275 6.80558 24.6052 7.34086 35.0897C7.4514 37.0679 8.34159 42.6301 9.86598 49.2279C11.3904 55.8374 13.5548 63.6048 16.1497 70.4644C18.7446 77.3299 21.8981 83.3052 24.8887 86.1329C26.3956 87.5467 27.7047 88.1169 28.8917 88.0704C30.0844 88.0122 31.5157 87.3489 33.2728 85.3067C36.4728 81.5621 39.7909 77.92 43.222 74.3859C40.7977 72.353 38.9315 69.7359 37.7994 66.7815C36.6766 63.8552 36.3357 60.6869 36.8103 57.5887C37.3747 53.644 37.4503 49.9552 37.3863 47.0461C37.3165 44.2068 37.107 42.3217 37.107 41.1406V40.9777C37.101 34.8286 38.2028 28.7288 40.3594 22.9703C41.8955 19.0023 44.1879 14.9703 47.6265 11.7063C44.2519 10.6299 38.2591 8.98915 31.7717 8.68078C31.0741 8.64343 30.3757 8.62403 29.6771 8.6226H29.6888ZM97.8438 36.7944C94.1143 36.841 92.0197 37.7777 90.9201 38.9995C89.3608 40.7333 89.2153 43.7705 90.1812 47.5174C91.147 51.2643 93.131 55.4593 95.0045 58.9385C95.9354 60.684 96.8431 62.2549 97.5762 63.5233C98.3151 64.8033 98.8562 65.711 99.182 66.4906C99.4923 67.1927 99.8181 67.8346 100.159 68.4164C101.602 65.4549 101.864 62.5517 101.713 59.5204C101.521 55.7734 100.625 51.9392 100.759 48.0585C100.904 43.5203 101.829 40.5588 101.911 37.0504C100.561 36.886 99.2033 36.8005 97.8438 36.7944ZM52.5778 37.4053C51.438 37.414 50.3026 37.5466 49.1916 37.801C46.9826 38.3218 44.8508 39.1275 42.8497 40.1981C42.1786 40.5472 41.5386 40.9525 40.9296 41.4141L40.8133 41.5188C40.8482 42.2984 41.0053 44.1894 41.0751 46.9647C41.1333 50.0076 41.0635 53.8883 40.4584 58.0775C39.1434 67.2004 45.9624 74.7525 53.98 74.7641C54.4454 72.8906 55.2193 70.9939 55.9873 68.9924C58.2215 63.1568 62.6143 58.9036 58.9139 42.2926C58.3088 39.5755 57.1102 38.4759 55.4578 37.8533C54.5326 37.5321 53.5569 37.3803 52.5778 37.4053ZM96.0983 38.4933H96.3776C96.7422 38.505 97.0719 38.5438 97.3667 38.6097C97.6343 38.6635 97.8903 38.7639 98.1231 38.9064C98.229 38.9688 98.3206 39.0529 98.3918 39.1532C98.463 39.2535 98.5122 39.3676 98.5362 39.4882V39.5348C98.5515 39.7905 98.4819 40.0441 98.3384 40.2562C98.176 40.5496 97.9722 40.8181 97.7333 41.0533C97.1694 41.6517 96.4259 42.05 95.6154 42.1879C94.8209 42.282 94.0191 42.0857 93.3579 41.6352C93.0918 41.4594 92.851 41.248 92.6423 41.0068C92.4658 40.8184 92.3449 40.5848 92.2932 40.3319C92.2805 40.2075 92.2948 40.0818 92.3349 39.9633C92.3751 39.8449 92.4402 39.7364 92.5259 39.6453C92.7119 39.4501 92.9305 39.2887 93.1717 39.1682C94.0933 38.7451 95.0905 38.5117 96.1041 38.4817L96.0983 38.4933ZM53.1131 39.3893C53.404 39.3893 53.7085 39.4126 54.0265 39.4592C54.8644 39.5755 55.6149 39.7908 56.1851 40.1108C56.4644 40.2543 56.7087 40.4424 56.9182 40.6752C57.0268 40.8032 57.1083 40.9447 57.1626 41.0999C57.2169 41.255 57.2343 41.416 57.2149 41.5828C57.162 41.8913 57.0182 42.177 56.8018 42.4032C56.5767 42.6742 56.3119 42.9096 56.0164 43.1014C55.2938 43.5934 54.4172 43.8064 53.5494 43.7006C52.669 43.5585 51.8596 43.1313 51.2454 42.4846C50.9901 42.2242 50.7709 41.9307 50.5938 41.6119C50.4126 41.3329 50.3325 41.0002 50.3668 40.6693C50.4483 40.0875 50.9429 39.7966 51.4141 39.6221C51.9589 39.4492 52.5309 39.3782 53.1014 39.4126L53.1131 39.3893ZM102.917 78.5576H102.9C102.091 78.8485 101.428 78.9649 100.863 79.1976C100.301 79.4061 99.8353 79.814 99.5544 80.3438C99.2053 80.9547 98.9144 82.0427 99.0016 83.8929C99.2523 84.0583 99.5271 84.1839 99.8162 84.2652C100.753 84.5445 102.33 84.7307 104.093 84.7016C107.595 84.6609 111.912 83.8696 114.205 82.834C116.084 81.9845 117.83 80.879 119.389 79.5525C111.726 81.0885 107.403 80.6812 104.744 79.6165C104.088 79.3489 103.473 78.9963 102.917 78.5576ZM58.7684 79.0521H58.652C58.3611 79.0754 57.9364 79.1685 57.1218 80.0529C55.2018 82.1358 54.5385 83.4391 52.956 84.6609C51.385 85.8827 49.3312 86.5285 45.2351 87.3431C43.9377 87.5991 43.1988 87.8842 42.6984 88.1111C42.8613 88.2391 42.8438 88.274 43.0824 88.3962C43.6817 88.7162 44.4555 88.9955 45.0722 89.1526C46.8352 89.5773 49.7268 90.0776 52.7465 89.5773C55.7662 89.0769 58.9022 87.6747 61.5786 84.0325C62.0441 83.4042 62.0906 82.4732 61.7125 81.4725C61.3226 80.4834 60.4848 79.6223 59.8913 79.3779C59.5373 79.211 59.1577 79.1048 58.7684 79.0638V79.0521Z" fill="black"/>
</g>
<defs>
<clipPath id="clip0_139_50">
<rect width="128" height="128" fill="white"/>
</clipPath>
</defs>
</svg>
