<svg width="128" height="128" viewBox="0 0 128 128" fill="none" xmlns="http://www.w3.org/2000/svg">
<g clip-path="url(#clip0_140_76)">
<path d="M40.7246 7C29.9238 7 19.5653 11.2906 11.928 18.928C4.29061 26.5653 0 36.9238 0 47.7246C0 58.5254 4.29061 68.8839 11.928 76.5212C19.5653 84.1586 29.9238 88.4492 40.7246 88.4492H46.9496C46.3927 84.5907 46.3927 80.6721 46.9496 76.8136H40.7246C33.0097 76.8136 25.6108 73.7489 20.1556 68.2936C14.7003 62.8384 11.6356 55.4395 11.6356 47.7246C11.6356 40.0097 14.7003 32.6108 20.1556 27.1556C25.6108 21.7003 33.0097 18.6356 40.7246 18.6356H87.267C91.581 18.6347 95.8412 19.5934 99.739 21.4421C103.637 23.2909 107.075 25.9835 109.803 29.3248C112.532 32.6661 114.483 36.5726 115.516 40.7611C116.549 44.9497 116.637 49.3156 115.774 53.5424C119.204 56.9016 122.012 60.8408 124.07 65.178C127.015 58.97 128.341 52.1179 127.925 45.2595C127.509 38.4011 125.365 31.7595 121.692 25.9528C118.018 20.1462 112.936 15.3633 106.917 12.0495C100.898 8.73564 94.138 6.99858 87.267 7H40.7246ZM58.178 82.6314C58.1791 78.0959 59.2407 73.6235 61.2781 69.5714C63.3155 65.5193 66.2721 61.9997 69.912 59.2937C73.5518 56.5878 77.774 54.7704 82.2413 53.9868C86.7086 53.2032 91.2972 53.4751 95.6407 54.7807C99.9842 56.0863 103.962 58.3895 107.257 61.5063C110.552 64.6231 113.072 68.4672 114.617 72.7315C116.162 76.9959 116.688 81.5624 116.153 86.0663C115.619 90.5701 114.039 94.8867 111.539 98.6711L126.287 113.425L118.061 121.651L103.307 106.903C98.9221 109.801 93.8344 111.457 88.584 111.695C83.3337 111.933 78.117 110.744 73.4883 108.255C68.8596 105.765 64.9918 102.068 62.2961 97.5565C59.6003 93.0449 58.1772 87.8871 58.178 82.6314Z" fill="black"/>
</g>
<defs>
<clipPath id="clip0_140_76">
<rect width="128" height="128" fill="white"/>
</clipPath>
</defs>
</svg>
