<svg width="128" height="128" viewBox="0 0 128 128" fill="none" xmlns="http://www.w3.org/2000/svg">
<path d="M119 58.1818C119 90.4727 95.5333 120.669 64 128C32.4667 120.669 9 90.4727 9 58.1818V23.2727L64 0L119 23.2727V58.1818ZM64 116.364C86.9167 110.545 106.778 84.5964 106.778 59.4618V30.8364L64 12.6836L21.2222 30.8364V59.4618C21.2222 84.5964 41.0833 110.545 64 116.364ZM81.1111 58.1818V49.4545C81.1111 41.3091 72.5556 34.9091 64 34.9091C55.4444 34.9091 46.8889 41.3091 46.8889 49.4545V58.1818C43.2222 58.1818 39.5556 61.6727 39.5556 65.1636V85.5273C39.5556 89.6 43.2222 93.0909 46.8889 93.0909H80.5C84.7778 93.0909 88.4444 89.6 88.4444 86.1091V65.7455C88.4444 61.6727 84.7778 58.1818 81.1111 58.1818ZM73.1667 58.1818H54.8333V49.4545C54.8333 44.8 59.1111 41.8909 64 41.8909C68.8889 41.8909 73.1667 44.8 73.1667 49.4545V58.1818Z" fill="black"/>
</svg>
