<svg width="128" height="128" viewBox="0 0 128 128" fill="none" xmlns="http://www.w3.org/2000/svg">
<path d="M61.9208 46.3467C60.8411 46.3467 59.8057 46.7737 59.0423 47.5339C58.2789 48.294 57.85 49.325 57.85 50.4V111.467C57.85 113.707 59.6712 115.52 61.9208 115.52C62.9385 115.52 63.7955 115.2 64.4918 114.667L74.7222 106.4L83.6136 125.707C84.3099 127.147 85.7561 128 87.3094 128C87.8986 128 88.4878 128 89.077 127.573L103.86 120.747C105.896 119.787 106.86 117.333 105.788 115.36L96.8436 96L109.752 93.6C110.636 93.3649 111.435 92.8839 112.055 92.2133C113.501 90.5067 113.287 88 111.413 86.4533L64.5989 47.2533L64.5453 47.3067C63.8118 46.6882 62.882 46.3481 61.9208 46.3467ZM84.6313 53.3333V42.6667H111.413V53.3333H84.6313ZM78.3645 25.3867L93.5227 10.2933L101.075 17.8133L85.9168 32.9067L78.3645 25.3867ZM57.85 0H68.5625V26.6667H57.85V0ZM25.3376 78.1867L40.4958 63.0933L48.0481 70.6133L32.8899 85.7067L25.3376 78.1867ZM25.3376 17.8133L32.8899 10.2933L48.0481 25.3867L40.4958 32.9067L25.3376 17.8133ZM41.7813 53.3333H15V42.6667H41.7813V53.3333Z" fill="black"/>
</svg>
