<svg width="128" height="128" viewBox="0 0 128 128" fill="none" xmlns="http://www.w3.org/2000/svg">
<path d="M64 0C32.5075 0 7 12.7289 7 28.4444C7 44.16 32.5075 56.8889 64 56.8889C95.4925 56.8889 121 44.16 121 28.4444C121 12.7289 95.4925 0 64 0ZM7 42.6667V64C7 79.7156 32.5075 92.4444 64 92.4444C95.4925 92.4444 121 79.7156 121 64V42.6667C121 58.3822 95.4925 71.1111 64 71.1111C32.5075 71.1111 7 58.3822 7 42.6667ZM7 78.2222V99.5556C7 115.271 32.5075 128 64 128C95.4925 128 121 115.271 121 99.5556V78.2222C121 93.9378 95.4925 106.667 64 106.667C32.5075 106.667 7 93.9378 7 78.2222Z" fill="black"/>
</svg>
