<svg width="128" height="128" viewBox="0 0 128 128" fill="none" xmlns="http://www.w3.org/2000/svg">
<g clip-path="url(#clip0_139_45)">
<path d="M128 38.4V0H89.6V24.32L79.36 38.4H48.64L38.4 24.32V0H0V38.4H12.8V89.6H0V128H38.4V115.2H89.6V128H128V89.6H115.2V38.4H128ZM57.6 51.2H70.4V64H57.6V51.2ZM12.8 12.8H25.6V25.6H12.8V12.8ZM25.6 115.2H12.8V102.4H25.6V115.2ZM89.6 102.4H38.4V89.6H25.6V38.4H32.64L44.8 55.04V76.8H83.2V55.04L95.36 38.4H102.4V89.6H89.6V102.4ZM115.2 115.2H102.4V102.4H115.2V115.2ZM102.4 25.6V12.8H115.2V25.6H102.4Z" fill="black"/>
</g>
<defs>
<clipPath id="clip0_139_45">
<rect width="128" height="128" fill="white"/>
</clipPath>
</defs>
</svg>
