<svg width="128" height="128" viewBox="0 0 128 128" fill="none" xmlns="http://www.w3.org/2000/svg">
<path d="M110.283 16.8807C98.6144 -0.137755 75.7706 -5.05708 58.1798 5.66152L28.4206 24.6621C24.3985 27.1928 20.9516 30.5451 18.3039 34.5013C15.6562 38.4574 13.867 42.9288 13.0525 47.6249C11.607 55.5159 12.8596 63.666 16.607 70.752C14.0465 74.6171 12.3259 78.9809 11.5574 83.5588C10.7159 88.3325 10.8282 93.2266 11.8876 97.9563C12.947 102.686 14.9324 107.157 17.7283 111.109C29.4173 128.087 52.1993 133.029 69.8289 122.433L99.6111 103.412C103.618 100.871 107.05 97.5145 109.686 93.5594C112.322 89.6044 114.104 85.1384 114.916 80.4495C116.345 72.5828 115.085 64.4621 111.342 57.4045C119.254 44.935 118.838 28.8937 110.283 16.8807ZM55.2085 112.757C50.5344 113.978 45.5998 113.726 41.0727 112.037C36.5455 110.348 32.6442 107.303 29.8968 103.314C26.447 98.516 25.1821 92.5916 26.1789 86.7102L26.762 83.8752L27.3002 82.1233L28.9 83.1864C32.4086 85.8573 36.3358 87.7734 40.5302 89.0678L41.6087 89.4432L41.4871 90.5113C41.3824 91.9929 41.818 93.6588 42.6712 94.9301C44.4156 97.4529 47.4487 98.6642 50.3732 97.8703C51.0151 97.6631 51.6421 97.4519 52.1793 97.1155L81.8369 78.1189C83.332 77.1569 84.2859 75.7183 84.6597 74.0085C84.9867 72.2336 84.5541 70.4196 83.5972 68.983C81.8289 66.5204 78.8197 65.4142 75.8952 66.149C75.2523 66.3752 74.5675 66.6295 74.0223 66.9619L62.8088 74.1146C52.1993 80.4495 38.4938 77.4732 31.4507 67.2752C29.7544 64.899 28.5496 62.2053 27.9076 59.3534C27.2655 56.5015 27.1993 53.5493 27.7129 50.6712C28.2271 47.8219 29.3319 45.113 30.9557 42.7201C32.5794 40.3272 34.6858 38.3039 37.1382 36.7812L66.734 17.7806C68.6029 16.6114 70.6154 15.7585 72.7963 15.1097C82.3702 12.607 92.4584 16.3811 98.108 24.5139C100.074 27.2948 101.372 30.4958 101.898 33.8653C102.424 37.2348 102.165 40.681 101.141 43.9329L100.6 45.7049L99.0659 44.6417C95.5241 42.0391 91.573 40.0511 87.3769 38.7603L86.3143 38.447L86.42 37.3798C86.5247 35.8152 86.0891 34.1694 85.2359 32.895C83.4875 30.3723 80.4584 29.3081 77.5339 30.0589C76.892 30.2702 76.265 30.4774 75.7278 30.8137L46.0114 49.9795C44.5162 50.9806 43.5594 52.3761 43.2474 54.128C42.9364 55.8368 43.353 57.7139 44.3099 59.0903C46.0124 61.6171 49.1043 62.6802 51.973 61.9254C52.6578 61.7182 53.3007 61.511 53.822 61.1746L65.1601 53.9127C67.0101 52.6854 69.0854 51.7904 71.2075 51.2028C80.8441 48.6801 90.8935 52.4782 96.5192 60.651C99.9689 65.4492 101.297 71.3696 100.339 77.1889C99.8471 80.0305 98.7646 82.736 97.1619 85.1292C95.5591 87.5223 93.4721 89.5493 91.037 91.078L61.3794 110.037C59.4509 111.208 57.3775 112.119 55.2125 112.747L55.2085 112.757Z" fill="black"/>
</svg>
