<svg width="128" height="128" viewBox="0 0 128 128" fill="none" xmlns="http://www.w3.org/2000/svg">
<path d="M62.6048 24.0241C55.097 23.9227 47.8146 26.5748 42.1481 31.4738C36.4816 36.3729 32.828 43.1758 31.8848 50.5837C33.7026 47.5035 36.2525 44.9139 39.311 43.0419C42.3695 41.1699 45.8431 40.0727 49.4272 39.8466C60.2368 39.8466 68.4608 52.3976 73.4784 56.3119C78.268 60.0767 83.9269 62.5928 89.9418 63.632C95.9568 64.6712 102.137 64.2005 107.923 62.2628C120.723 58.2021 126.701 44.0281 128 37.3071C121.798 46.0839 112.384 51.3538 100.742 45.1419C92.7232 40.8586 86.7264 23.2604 62.6048 24.0241ZM30.72 63.8603C23.212 63.7545 15.9282 66.4042 10.2609 71.3027C4.59369 76.2013 0.940593 83.0051 0 90.4135C1.82017 87.3299 4.37411 84.7381 7.43737 82.8659C10.5006 80.9937 13.9794 79.8985 17.568 79.6764C28.3776 79.6764 36.6016 92.2274 41.6192 96.1417C46.4088 99.9065 52.0677 102.423 58.0826 103.462C64.0976 104.501 70.2783 104.03 76.064 102.093C88.864 98.032 94.8352 83.8579 96.1408 77.1369C89.9328 85.9137 80.5248 91.19 68.8832 84.9718C60.864 80.6884 54.8672 63.0584 30.72 63.8603Z" fill="black"/>
</svg>
