<svg width="128" height="128" viewBox="0 0 128 128" fill="none" xmlns="http://www.w3.org/2000/svg">
<path d="M59.7333 16.8C59.7333 15.6684 60.1829 14.5832 60.983 13.783C61.7832 12.9829 62.8684 12.5333 64 12.5333H123.733C124.865 12.5333 125.95 12.9829 126.75 13.783C127.55 14.5832 128 15.6684 128 16.8V25.3333C128 26.4649 127.55 27.5502 126.75 28.3503C125.95 29.1505 124.865 29.6 123.733 29.6H64C62.8684 29.6 61.7832 29.1505 60.983 28.3503C60.1829 27.5502 59.7333 26.4649 59.7333 25.3333V16.8ZM17.0667 4C12.5403 4 8.19933 5.79809 4.99871 8.99871C1.79809 12.1993 0 16.5403 0 21.0667L0 38.1333C0 42.6597 1.79809 47.0007 4.99871 50.2013C8.19933 53.4019 12.5403 55.2 17.0667 55.2H34.1333C38.6597 55.2 43.0007 53.4019 46.2013 50.2013C49.4019 47.0007 51.2 42.6597 51.2 38.1333V21.0667C51.2 16.5403 49.4019 12.1993 46.2013 8.99871C43.0007 5.79809 38.6597 4 34.1333 4H17.0667ZM17.0667 72.2667C12.5403 72.2667 8.19933 74.0648 4.99871 77.2654C1.79809 80.466 0 84.807 0 89.3333L0 106.4C0 110.926 1.79809 115.267 4.99871 118.468C8.19933 121.669 12.5403 123.467 17.0667 123.467H34.1333C38.6597 123.467 43.0007 121.669 46.2013 118.468C49.4019 115.267 51.2 110.926 51.2 106.4V89.3333C51.2 84.807 49.4019 80.466 46.2013 77.2654C43.0007 74.0648 38.6597 72.2667 34.1333 72.2667H17.0667ZM24.3541 41.1541C23.9578 41.5515 23.487 41.8667 22.9686 42.0818C22.4503 42.2969 21.8945 42.4076 21.3333 42.4076C20.7721 42.4076 20.2164 42.2969 19.6981 42.0818C19.1797 41.8667 18.7089 41.5515 18.3125 41.1541L9.7792 32.6208C9.3825 32.2241 9.06783 31.7532 8.85313 31.2348C8.63844 30.7165 8.52794 30.161 8.52794 29.6C8.52794 29.039 8.63844 28.4835 8.85313 27.9652C9.06783 27.4468 9.3825 26.9759 9.7792 26.5792C10.1759 26.1825 10.6468 25.8678 11.1652 25.6531C11.6835 25.4384 12.239 25.3279 12.8 25.3279C13.361 25.3279 13.9165 25.4384 14.4348 25.6531C14.9532 25.8678 15.4241 26.1825 15.8208 26.5792L21.3333 32.1003L35.3792 18.0459C35.7759 17.6492 36.2468 17.3345 36.7652 17.1198C37.2835 16.9051 37.839 16.7946 38.4 16.7946C38.961 16.7946 39.5165 16.9051 40.0348 17.1198C40.5532 17.3345 41.0241 17.6492 41.4208 18.0459C41.8175 18.4426 42.1322 18.9135 42.3469 19.4318C42.5616 19.9501 42.6721 20.5057 42.6721 21.0667C42.6721 21.6277 42.5616 22.1832 42.3469 22.7015C42.1322 23.2198 41.8175 23.6908 41.4208 24.0875L24.3541 41.1541ZM24.3541 109.421C23.9578 109.818 23.487 110.133 22.9686 110.348C22.4503 110.564 21.8945 110.674 21.3333 110.674C20.7721 110.674 20.2164 110.564 19.6981 110.348C19.1797 110.133 18.7089 109.818 18.3125 109.421L9.7792 100.887C8.97803 100.086 8.52794 98.9997 8.52794 97.8667C8.52794 96.7337 8.97803 95.647 9.7792 94.8459C10.5804 94.0447 11.667 93.5946 12.8 93.5946C13.933 93.5946 15.0196 94.0447 15.8208 94.8459L21.3333 100.367L35.3792 86.3125C36.1804 85.5114 37.267 85.0613 38.4 85.0613C39.533 85.0613 40.6196 85.5114 41.4208 86.3125C42.222 87.1137 42.6721 88.2003 42.6721 89.3333C42.6721 90.4664 42.222 91.553 41.4208 92.3541L24.3541 109.421ZM59.7333 85.0667C59.7333 83.9351 60.1829 82.8498 60.983 82.0497C61.7832 81.2495 62.8684 80.8 64 80.8H123.733C124.865 80.8 125.95 81.2495 126.75 82.0497C127.55 82.8498 128 83.9351 128 85.0667V93.6C128 94.7316 127.55 95.8168 126.75 96.617C125.95 97.4172 124.865 97.8667 123.733 97.8667H64C62.8684 97.8667 61.7832 97.4172 60.983 96.617C60.1829 95.8168 59.7333 94.7316 59.7333 93.6V85.0667ZM59.7333 42.4C59.7333 41.2684 60.1829 40.1832 60.983 39.383C61.7832 38.5829 62.8684 38.1333 64 38.1333H106.667C107.798 38.1333 108.884 38.5829 109.684 39.383C110.484 40.1832 110.933 41.2684 110.933 42.4C110.933 43.5316 110.484 44.6168 109.684 45.417C108.884 46.2171 107.798 46.6667 106.667 46.6667H64C62.8684 46.6667 61.7832 46.2171 60.983 45.417C60.1829 44.6168 59.7333 43.5316 59.7333 42.4ZM59.7333 110.667C59.7333 109.535 60.1829 108.45 60.983 107.65C61.7832 106.85 62.8684 106.4 64 106.4H106.667C107.798 106.4 108.884 106.85 109.684 107.65C110.484 108.45 110.933 109.535 110.933 110.667C110.933 111.798 110.484 112.884 109.684 113.684C108.884 114.484 107.798 114.933 106.667 114.933H64C62.8684 114.933 61.7832 114.484 60.983 113.684C60.1829 112.884 59.7333 111.798 59.7333 110.667Z" fill="black"/>
</svg>
